<svg width="218" height="91" viewBox="0 0 218 91" fill="#576f7f" xmlns="http://www.w3.org/2000/svg">
<path fill-rule="evenodd" clip-rule="evenodd" d="M217.448 47.2957C217.448 31.8644 209.973 19.6882 195.687 19.6882C181.341 19.6882 172.661 31.8644 172.661 47.1752C172.661 65.319 182.908 74.4813 197.616 74.4813C204.79 74.4813 210.215 72.8538 214.314 70.5632V58.5075C210.215 60.557 205.513 61.8228 199.545 61.8228C193.698 61.8228 188.514 59.7734 187.851 52.6605H217.327C217.327 51.8769 217.448 48.7424 217.448 47.2957ZM187.67 41.5693C187.67 34.7578 191.83 31.9247 195.627 31.9247C199.304 31.9247 203.222 34.7578 203.222 41.5693H187.67ZM149.394 19.6882C143.486 19.6882 139.689 22.461 137.579 24.3899L136.795 20.6526H123.534V90.9374L138.604 87.7426L138.664 70.6838C140.834 72.251 144.029 74.4813 149.333 74.4813C160.123 74.4813 169.949 65.8012 169.949 46.6929C169.888 29.2122 159.942 19.6882 149.394 19.6882ZM145.777 61.2201C142.22 61.2201 140.111 59.9542 138.664 58.387L138.604 36.0236C140.171 34.2756 142.341 33.07 145.777 33.07C151.262 33.07 155.06 39.2184 155.06 47.1149C155.06 55.1922 151.322 61.2201 145.777 61.2201ZM102.798 16.1317L117.928 12.8767V0.640137L102.798 3.8349V16.1317ZM102.798 20.7129H117.928V73.4566H102.798V20.7129ZM86.5833 25.1735L85.6189 20.7129H72.5987V73.4566H87.6684V37.7114C91.2248 33.07 97.2526 33.9139 99.1213 34.577V20.7129C97.1924 19.9895 90.1398 18.6634 86.5833 25.1735ZM56.4441 7.63245L41.7361 10.7669L41.6758 59.05C41.6758 67.9713 48.3667 74.5416 57.288 74.5416C62.2308 74.5416 65.8475 73.6374 67.8367 72.5524V60.3159C65.9078 61.0995 56.3838 63.8723 56.3838 54.9511V33.5522H67.8367V20.7129H56.3838L56.4441 7.63245ZM15.6958 36.0236C15.6958 33.6728 17.6247 32.7686 20.8195 32.7686C25.4006 32.7686 31.1874 34.155 35.7685 36.6264V22.461C30.7654 20.4718 25.8226 19.6882 20.8195 19.6882C8.58292 19.6882 0.445312 26.0777 0.445312 36.747C0.445312 53.3839 23.3512 50.7316 23.3512 57.9047C23.3512 60.6776 20.94 61.5817 17.5644 61.5817C12.5613 61.5817 6.17177 59.5323 1.10838 56.7595V71.1057C6.71428 73.5169 12.3805 74.5416 17.5644 74.5416C30.1024 74.5416 38.7222 68.3329 38.7222 57.5431C38.6619 39.5801 15.6958 42.7748 15.6958 36.0236Z"></path>
</svg>